<svg xmlns="http://www.w3.org/2000/svg" xmlns:xlink="http://www.w3.org/1999/xlink" width="100" height="100"><defs><path id="a" d="M99.962 49.908c0 27.564-22.378 49.908-49.981 49.908C22.377 99.816 0 77.472 0 49.908S22.377 0 49.98 0c27.604 0 49.982 22.344 49.982 49.908"/></defs><g fill="none" fill-rule="evenodd"><mask id="b" fill="#fff"><use xlink:href="#a"/></mask><use fill="#F5F5F5" xlink:href="#a"/><g mask="url(#b)"><path fill="#FFB048" d="M70.273 22.01H32.337c-.893 0-1.617.738-1.617 1.646v52.698c0 .91.724 1.646 1.617 1.646h37.936c.893 0 1.617-.737 1.617-1.646V23.656c0-.908-.724-1.645-1.617-1.645"/><path fill="#F90" d="M70.25 22.01H47.412V78H70.25c.905 0 1.639-.737 1.639-1.646V23.656c0-.908-.734-1.645-1.639-1.645"/><path fill="#535353" d="M34.377 32.5h-4.834c-.852 0-1.543-.783-1.543-1.75 0-.966.69-1.75 1.543-1.75h4.834c.852 0 1.543.784 1.543 1.75 0 .967-.69 1.75-1.543 1.75zm0 6.125h-4.834c-.852 0-1.543-.784-1.543-1.75 0-.967.69-1.75 1.543-1.75h4.834c.852 0 1.543.783 1.543 1.75 0 .966-.69 1.75-1.543 1.75zm0 7h-4.834c-.852 0-1.543-.784-1.543-1.75s.69-1.75 1.543-1.75h4.834c.852 0 1.543.784 1.543 1.75s-.69 1.75-1.543 1.75zm0 6.125h-4.834C28.69 51.75 28 50.966 28 50c0-.967.69-1.75 1.543-1.75h4.834c.852 0 1.543.783 1.543 1.75 0 .966-.69 1.75-1.543 1.75zm0 6.125h-4.834c-.852 0-1.543-.784-1.543-1.75s.69-1.75 1.543-1.75h4.834c.852 0 1.543.784 1.543 1.75s-.69 1.75-1.543 1.75zm0 7h-4.834c-.852 0-1.543-.784-1.543-1.75 0-.967.69-1.75 1.543-1.75h4.834c.852 0 1.543.783 1.543 1.75 0 .966-.69 1.75-1.543 1.75zm0 6.125h-4.834C28.69 71 28 70.216 28 69.25s.69-1.75 1.543-1.75h4.834c.852 0 1.543.784 1.543 1.75S35.23 71 34.377 71z"/><path fill="#FFF" d="M42.08 49.125H67.6v-14H42.08z"/><path fill="#EDEDED" d="M46.48 41.25v-2.625H63.2v2.625H46.48zm0 4.375V43H63.2v2.625H46.48z"/></g></g></svg>