<svg xmlns="http://www.w3.org/2000/svg" xmlns:xlink="http://www.w3.org/1999/xlink" width="100" height="100"><defs><path id="a" d="M99.962 49.908c0 27.564-22.378 49.908-49.981 49.908C22.377 99.816 0 77.472 0 49.908S22.377 0 49.98 0c27.604 0 49.982 22.344 49.982 49.908"/><path id="c" d="M0 42h50V0H0z"/></defs><g fill="none" fill-rule="evenodd"><mask id="b" fill="#fff"><use xlink:href="#a"/></mask><use fill="#F5F5F5" xlink:href="#a"/><g mask="url(#b)"><g transform="translate(25 28)"><path fill="#FFF8EF" d="M35.75 17.982c1.167 0 2.083.924 2.083 2.1 0 1.176-.916 2.1-2.083 2.1h-7.083v1.68h7.083c1.167 0 2.083.924 2.083 2.1 0 1.176-.916 2.1-2.083 2.1h-7.083v1.68h7.083c1.167 0 2.083.924 2.083 2.1 0 1.176-.916 2.1-2.083 2.1h-7.083v1.68h7.083c1.167 0 2.083.924 2.083 2.1 0 1.176-.916 2.1-2.083 2.1H17.333l-2.25-2.268a.754.754 0 0 0-.583-.252H12v-15.96h3.333c.25 0 .5-.168.667-.42l3.333-5.04c.084-.168.167-.252.167-.42V8.574c0-.84.417-1.596 1.083-2.1.667-.504 1.5-.588 2.334-.336 1 .336 1.666 1.344 1.666 2.352v8.652c0 .42.417.84.834.84H35.75z"/><mask id="d" fill="#fff"><use xlink:href="#c"/></mask><path fill="#FFB048" d="M2 39.16h8.333V19H2z" mask="url(#d)"/><path fill="#F90" d="M30 24.36h5.417c1.166 0 2.083.924 2.083 2.1 0 1.176-.917 2.1-2.083 2.1h-7.084v1.68h7.084c1.166 0 2.083.924 2.083 2.1 0 1.176-.917 2.1-2.083 2.1h-7.084v1.68h7.084c1.166 0 2.083.924 2.083 2.1 0 1.176-.917 2.1-2.083 2.1H17l-2.25-2.268a.754.754 0 0 0-.583-.252h-2.5V21.84H15c.25 0 .5-.168.583-.42l3.334-5.04a.644.644 0 0 0 .166-.42V9.156c0-.84.417-1.596 1.084-2.1.75-.504 1.583-.672 2.333-.336 1 .336 1.667 1.344 1.667 2.352v8.568c0 .42.416.84.833.84h10.417c1.166 0 2.083.924 2.083 2.1 0 1.176-.917 2.1-2.083 2.1h-7.084v1.68H30zM1.667 39.48H10V19.32H1.667v20.16zM47.167 0H16.25c-1.667 0-2.917 1.344-2.917 2.856V20.16h-1.666v-1.68a.84.84 0 0 0-.834-.84h-10c-.416 0-.833.42-.833.84v21.84c0 .42.417.84.833.84h10c.5 0 .834-.42.834-.84v-.84h2.166l2.25 2.268a.754.754 0 0 0 .584.252h18.75c2.083 0 3.75-1.68 3.75-3.78 0-1.176-.584-2.268-1.417-2.94.833-.672 1.417-1.764 1.417-2.94s-.584-2.268-1.417-2.94c.75-.588 1.333-1.512 1.417-2.52h4.666l4.75 4.788a.754.754 0 0 0 .584.252c.083 0 .25 0 .333-.084.333-.084.5-.42.5-.756V2.856C50 1.344 48.75 0 47.167 0z" mask="url(#d)"/><path fill="#FFF" d="M40 15.68h5.833V14H40zm-5-5h10.833V9H35zm8-5h3.333V4H43zm-16 0h13.333V4H27zm0 5h6.667V9H27z" mask="url(#d)"/><path fill="#FFF" d="M40 15.68h5.833V14H40z" mask="url(#d)"/><path fill="#D67F0B" d="M30 24.461h5.417c1.166 0 2.083.924 2.083 2.1 0 1.176-.917 2.1-2.083 2.1h-7.084v1.68h7.084c1.166 0 2.083.924 2.083 2.1 0 1.176-.917 2.1-2.083 2.1h-7.084v1.68h7.084c1.166 0 2.083.924 2.083 2.1 0 1.176-.917 2.1-2.083 2.1H17l-2.25-2.268a.754.754 0 0 0-.583-.252h-2.5v-15.96H15c.25 0 .5-.168.583-.42l3.334-5.04a.645.645 0 0 0 .166-.42V9.257c0-.84.417-1.596 1.084-2.1.75-.504 1.583-.672 2.333-.336 1 .336 1.667 1.344 1.667 2.352v8.568c0 .42.416.84.833.84h10.417c1.166 0 2.083.924 2.083 2.1 0 1.176-.917 2.1-2.083 2.1h-7.084v1.68H30zM1.667 39.581H10v-20.16H1.667v20.16zm37.5-7.14c0-1.176-.584-2.268-1.417-2.94.75-.588 1.333-1.512 1.417-2.52h.033c.01-.272.008-.571-.018-.888a2.577 2.577 0 0 0-.205-.792h-.06c-.12-.32-.277-.62-.463-.893a5.768 5.768 0 0 0-.698-.782l-.006-.005.38-.357a3.832 3.832 0 0 0 1.037-2.583c0-2.1-1.667-3.78-3.75-3.78H25.75V9.173c0-1.764-1.083-3.36-2.667-3.948a4.454 4.454 0 0 0-3.833.504c-1.083.756-1.75 2.1-1.75 3.444v6.636l-2.092 3.163-.809 1.289h-2.932v-1.68a.84.84 0 0 0-.834-.84h-10c-.416 0-.833.42-.833.84v21.84c0 .42.417.84.833.84h10c.5 0 .834-.42.834-.84v-.84h2.166l2.25 2.268a.754.754 0 0 0 .584.252h18.75c2.083 0 3.75-1.68 3.75-3.78 0-1.176-.584-2.268-1.417-2.94.833-.672 1.417-1.764 1.417-2.94z" mask="url(#d)"/></g></g></g></svg>